<?xml version="1.0" encoding="utf-8"?>
<svg version="1.1" focusable="false" xmlns="http://www.w3.org/2000/svg" xmlns:xlink="http://www.w3.org/1999/xlink"
	 x="0px" y="0px" viewBox="0 0 352 512" xml:space="preserve">
<path d="M170.6,79c-51,0-92.6,43.1-92.6,96c0,8.8,6.9,18,15.4,18s14.4-9.2,14.4-18c0-35.3,28.7-66,62.7-66
	c8.5,0,17.4-5.2,17.4-14S179.1,79,170.6,79z M96.1,459.2c0,3.1,0.9,6.2,2.7,8.8l24.5,36.8c3,4.5,8,7.1,13.3,7.1h78.9
	c5.4,0,10.4-2.7,13.3-7.1l24.5-36.8c1.7-2.6,2.7-5.7,2.7-8.8V419H96L96.1,459.2z M176,0C73.7,0,0,83,0,176
	c0,44.4,16.5,84.9,43.6,115.8c16.6,19,42.7,65.8,52.4,99.2v0.1h48V391c0-4.8-0.7-16.5-2.1-21.1C136.2,352,119,305,79.7,260.1
	C59.1,236.7,48.1,207,48.1,176C47.9,102.4,107.7,48,176,48c70.6,0,128,57.4,128,128c0,31-11.2,60.8-31.6,84.1
	c-39.1,44.6-56.4,91.5-62.1,109.5c-1.5,4.6-2.2,16.4-2.2,21.3v0.1h48l0,0c9.7-33.4,35.8-80.2,52.4-99.2
	c27-30.9,43.5-71.4,43.5-115.8C352,78.8,273.2,0,176,0z" fill="red"/>
</svg>
